<svg width="101" height="27" viewBox="0 0 101 27" fill="none" xmlns="http://www.w3.org/2000/svg">
<g filter="url(#filter0_d)">
<path d="M11.043 13.2344C9.23828 13.2344 7.77344 12.668 6.64844 11.5352C5.53125 10.3945 4.97266 8.87891 4.97266 6.98828V6.63672C4.97266 5.37109 5.21484 4.24219 5.69922 3.25C6.19141 2.25 6.87891 1.47266 7.76172 0.917969C8.64453 0.363281 9.62891 0.0859375 10.7148 0.0859375C12.4414 0.0859375 13.7734 0.636719 14.7109 1.73828C15.6562 2.83984 16.1289 4.39844 16.1289 6.41406V7.5625H7.84375C7.92969 8.60938 8.27734 9.4375 8.88672 10.0469C9.50391 10.6562 10.2773 10.9609 11.207 10.9609C12.5117 10.9609 13.5742 10.4336 14.3945 9.37891L15.9297 10.8438C15.4219 11.6016 14.7422 12.1914 13.8906 12.6133C13.0469 13.0273 12.0977 13.2344 11.043 13.2344ZM10.7031 2.37109C9.92188 2.37109 9.28906 2.64453 8.80469 3.19141C8.32812 3.73828 8.02344 4.5 7.89062 5.47656H13.3164V5.26562C13.2539 4.3125 13 3.59375 12.5547 3.10938C12.1094 2.61719 11.4922 2.37109 10.7031 2.37109ZM23.875 6.89453H17.7227V4.59766H23.875V6.89453ZM28.9023 0.320312L28.9844 1.64453C29.875 0.605469 31.0938 0.0859375 32.6406 0.0859375C34.3359 0.0859375 35.4961 0.734375 36.1211 2.03125C37.043 0.734375 38.3398 0.0859375 40.0117 0.0859375C41.4102 0.0859375 42.4492 0.472656 43.1289 1.24609C43.8164 2.01953 44.168 3.16016 44.1836 4.66797V13H41.3359V4.75C41.3359 3.94531 41.1602 3.35547 40.8086 2.98047C40.457 2.60547 39.875 2.41797 39.0625 2.41797C38.4141 2.41797 37.8828 2.59375 37.4688 2.94531C37.0625 3.28906 36.7773 3.74219 36.6133 4.30469L36.625 13H33.7773V4.65625C33.7383 3.16406 32.9766 2.41797 31.4922 2.41797C30.3516 2.41797 29.543 2.88281 29.0664 3.8125V13H26.2188V0.320312H28.9023ZM46.5742 6.54297C46.5742 5.30078 46.8203 4.18359 47.3125 3.19141C47.8047 2.19141 48.4961 1.42578 49.3867 0.894531C50.2773 0.355469 51.3008 0.0859375 52.457 0.0859375C54.168 0.0859375 55.5547 0.636719 56.6172 1.73828C57.6875 2.83984 58.2656 4.30078 58.3516 6.12109L58.3633 6.78906C58.3633 8.03906 58.1211 9.15625 57.6367 10.1406C57.1602 11.125 56.4727 11.8867 55.5742 12.4258C54.6836 12.9648 53.6523 13.2344 52.4805 13.2344C50.6914 13.2344 49.2578 12.6406 48.1797 11.4531C47.1094 10.2578 46.5742 8.66797 46.5742 6.68359V6.54297ZM49.4219 6.78906C49.4219 8.09375 49.6914 9.11719 50.2305 9.85938C50.7695 10.5938 51.5195 10.9609 52.4805 10.9609C53.4414 10.9609 54.1875 10.5859 54.7188 9.83594C55.2578 9.08594 55.5273 7.98828 55.5273 6.54297C55.5273 5.26172 55.25 4.24609 54.6953 3.49609C54.1484 2.74609 53.4023 2.37109 52.457 2.37109C51.5273 2.37109 50.7891 2.74219 50.2422 3.48438C49.6953 4.21875 49.4219 5.32031 49.4219 6.78906ZM63.4141 0.320312L63.4961 1.78516C64.4336 0.652344 65.6641 0.0859375 67.1875 0.0859375C69.8281 0.0859375 71.1719 1.59766 71.2188 4.62109V13H68.3711V4.78516C68.3711 3.98047 68.1953 3.38672 67.8438 3.00391C67.5 2.61328 66.9336 2.41797 66.1445 2.41797C64.9961 2.41797 64.1406 2.9375 63.5781 3.97656V13H60.7305V0.320312H63.4141ZM79.7148 13.2344C77.9102 13.2344 76.4453 12.668 75.3203 11.5352C74.2031 10.3945 73.6445 8.87891 73.6445 6.98828V6.63672C73.6445 5.37109 73.8867 4.24219 74.3711 3.25C74.8633 2.25 75.5508 1.47266 76.4336 0.917969C77.3164 0.363281 78.3008 0.0859375 79.3867 0.0859375C81.1133 0.0859375 82.4453 0.636719 83.3828 1.73828C84.3281 2.83984 84.8008 4.39844 84.8008 6.41406V7.5625H76.5156C76.6016 8.60938 76.9492 9.4375 77.5586 10.0469C78.1758 10.6562 78.9492 10.9609 79.8789 10.9609C81.1836 10.9609 82.2461 10.4336 83.0664 9.37891L84.6016 10.8438C84.0938 11.6016 83.4141 12.1914 82.5625 12.6133C81.7188 13.0273 80.7695 13.2344 79.7148 13.2344ZM79.375 2.37109C78.5938 2.37109 77.9609 2.64453 77.4766 3.19141C77 3.73828 76.6953 4.5 76.5625 5.47656H81.9883V5.26562C81.9258 4.3125 81.6719 3.59375 81.2266 3.10938C80.7812 2.61719 80.1641 2.37109 79.375 2.37109ZM91.293 8.92188L93.8711 0.320312H96.9062L91.8672 14.9219C91.0938 17.0547 89.7812 18.1211 87.9297 18.1211C87.5156 18.1211 87.0586 18.0508 86.5586 17.9102V15.707L87.0977 15.7422C87.8164 15.7422 88.3555 15.6094 88.7148 15.3438C89.082 15.0859 89.3711 14.6484 89.582 14.0312L89.9922 12.9414L85.5391 0.320312H88.6094L91.293 8.92188Z" fill="#4982C1"/>
</g>
<defs>
<filter id="filter0_d" x="0.972656" y="0.0859375" width="99.9336" height="26.0352" filterUnits="userSpaceOnUse" color-interpolation-filters="sRGB">
<feFlood flood-opacity="0" result="BackgroundImageFix"/>
<feColorMatrix in="SourceAlpha" type="matrix" values="0 0 0 0 0 0 0 0 0 0 0 0 0 0 0 0 0 0 127 0"/>
<feOffset dy="4"/>
<feGaussianBlur stdDeviation="2"/>
<feColorMatrix type="matrix" values="0 0 0 0 0 0 0 0 0 0 0 0 0 0 0 0 0 0 0.25 0"/>
<feBlend mode="normal" in2="BackgroundImageFix" result="effect1_dropShadow"/>
<feBlend mode="normal" in="SourceGraphic" in2="effect1_dropShadow" result="shape"/>
</filter>
</defs>
</svg>
